<?xml version="1.0" encoding="utf-8"?>
<!-- Generator: Adobe Illustrator 18.1.1, SVG Export Plug-In . SVG Version: 6.00 Build 0)  -->
<svg version="1.1" id="Layer_1" xmlns="http://www.w3.org/2000/svg" xmlns:xlink="http://www.w3.org/1999/xlink" x="0px" y="0px"
	 viewBox="0 0 299.4 33.4" enable-background="new 0 0 299.4 33.4" xml:space="preserve">
<g>
	<g>
		<path fill="#595A5C" d="M246.5,7.1c3.6,0,6,0.5,7.3,1.6c1.3,1.1,2,3,2,5.8c0,2-0.3,3.4-0.9,4.4c-0.6,0.9-1.5,1.6-2.9,1.9
			c1.2,0.3,2.1,0.8,2.7,1.5c0.6,0.7,0.9,1.6,0.9,2.8v4.6h-6.9v-3.4c0-0.9-0.2-1.5-0.6-1.8c-0.4-0.3-1.3-0.5-2.5-0.5h-10.3v5.8h-6.9
			V7.1H246.5z M246.2,12.8h-11v5.5h11c0.9,0,1.6-0.2,1.9-0.6c0.4-0.4,0.6-1.2,0.6-2.3c0-0.9-0.2-1.5-0.6-1.9
			C247.7,13,247.1,12.8,246.2,12.8z"/>
		<path fill="#E7E7E7" d="M42.7,22.2l6.8,0v0.4c0,0.9,0.2,1.5,0.6,1.7c0.4,0.3,1.3,0.5,2.6,0.5h8.7c0.8,0,1.5-0.1,1.8-0.4
			c0.4-0.3,0.5-0.8,0.5-1.4c0-0.7-0.2-1.2-0.6-1.5c-0.4-0.3-1.3-0.5-2.7-0.6l-10.8-0.2c-2.7-0.1-4.6-0.6-5.5-1.5
			c-1-1-1.4-2.7-1.4-5.2c0-1.3,0.1-2.4,0.4-3.2c0.3-0.8,0.7-1.5,1.2-2.1c0.7-0.6,1.5-1.1,2.6-1.3C47.9,7,49.6,6.9,52,6.9h10.5
			c2.6,0,4.5,0.5,5.6,1.4c1.1,1,1.7,2.5,1.7,4.6c0,0.1,0,0.3,0,0.5c0,0.2,0,0.4-0.1,0.8h-6.6v-0.1c0-0.7-0.2-1.3-0.6-1.7
			c-0.4-0.4-0.9-0.6-1.7-0.6h-8c-1.3,0-2.2,0.1-2.6,0.4c-0.4,0.3-0.6,0.7-0.6,1.4c0,0.6,0.2,1.1,0.6,1.4c0.4,0.3,1.1,0.5,2.1,0.6
			l11.3,0.2c2.6,0.1,4.4,0.7,5.5,1.7c1.1,1.1,1.6,3,1.6,5.6c0,1.6-0.2,2.8-0.6,3.6c-0.4,0.9-1,1.6-2,2.2c-0.6,0.4-1.4,0.7-2.5,0.8
			c-1,0.2-2.6,0.3-4.5,0.3h-9.2c-3.8,0-6.3-0.4-7.6-1.3c-1.3-0.8-1.9-2.4-1.9-4.7c0-0.1,0-0.4,0-0.7C42.6,23,42.7,22.7,42.7,22.2z"
			/>
		<path fill="#E7E7E7" d="M73.2,7.1h6.9v13.4c0,1.5,0.3,2.5,1,3.1c0.7,0.5,2.2,0.8,4.5,0.8h3.9c1.9,0,3.2-0.3,3.9-0.8
			c0.7-0.6,1-1.6,1-3V7.1h6.9v15.5c0,2.7-0.7,4.6-2.2,5.7c-1.4,1.1-3.9,1.7-7.5,1.7h-7.7c-4.1,0-7-0.5-8.5-1.6
			c-1.6-1.1-2.3-3-2.3-5.8V7.1z"/>
		<path fill="#E7E7E7" d="M125.7,15.3L125.7,15.3c0-1.1-0.3-1.8-0.9-2.2c-0.6-0.4-2-0.6-4.2-0.6h-4c-2.4,0-3.9,0.3-4.5,0.8
			c-0.7,0.6-1,1.8-1,3.6v3.2c0,1.6,0.4,2.7,1.1,3.3c0.8,0.6,2.2,0.9,4.4,0.9h4c2,0,3.3-0.2,4.1-0.5c0.7-0.4,1.1-1,1.1-1.9
			c0-0.1,0-0.3-0.1-0.6c0,0,0-0.1,0-0.1h-8.1v-4.6h15.3v7.4c0,2.1-0.8,3.7-2.4,4.5c-1.6,0.9-4.3,1.3-8.2,1.3h-7.7
			c-2.4,0-4.1-0.1-5.2-0.4c-1.1-0.3-2.1-0.7-2.8-1.3c-0.9-0.7-1.6-1.6-2-2.7c-0.4-1-0.6-2.4-0.6-4v-6.2c0-3.2,0.8-5.5,2.3-6.8
			c1.5-1.3,4.3-1.9,8.3-1.9h7.7c2.5,0,4.3,0.1,5.5,0.3c1.2,0.2,2.1,0.6,2.8,1.1c0.7,0.5,1.2,1.3,1.6,2.2c0.3,0.9,0.5,2.1,0.5,3.5
			c0,0.3,0,0.6,0,0.8c0,0.2,0,0.3,0,0.5H125.7z"/>
		<path fill="#E7E7E7" d="M140.3,29.7h-7.5l12.4-22.6h8.8L166,29.7h-7.6l-2.2-3.8h-13.8L140.3,29.7z M145.1,20.5h8.7l-4.4-8
			L145.1,20.5z"/>
		<path fill="#E7E7E7" d="M185,7.1c3.6,0,6,0.5,7.3,1.6c1.3,1.1,1.9,3,1.9,5.8c0,2-0.3,3.4-0.9,4.4c-0.6,0.9-1.6,1.6-2.9,1.9
			c1.2,0.3,2.1,0.8,2.7,1.5c0.6,0.7,0.9,1.6,0.9,2.8v4.6h-6.9v-3.4c0-0.9-0.2-1.5-0.6-1.8c-0.4-0.3-1.2-0.5-2.5-0.5h-10.3v5.8h-6.9
			V7.1H185z M184.7,12.8h-11v5.5h11c0.9,0,1.6-0.2,1.9-0.6c0.4-0.4,0.5-1.2,0.5-2.3c0-0.9-0.2-1.5-0.6-1.9
			C186.2,13,185.6,12.8,184.7,12.8z"/>
		<path fill="#595A5C" d="M218.7,15.3v-0.2c0-0.9-0.3-1.5-0.9-1.9c-0.6-0.4-1.5-0.6-2.8-0.6h-5.5c-2.4,0-3.9,0.3-4.6,0.9
			c-0.7,0.6-1,1.8-1,3.6v3.1c0,1.6,0.4,2.7,1.1,3.3c0.7,0.6,2.2,0.9,4.4,0.9h4c2.2,0,3.6-0.2,4.3-0.7c0.7-0.4,1-1.3,1-2.5V21h7
			c0,0,0,0.1,0,0.2c0,0.7,0.1,1.2,0.1,1.5c0,1.5-0.2,2.7-0.5,3.6c-0.4,0.9-0.9,1.7-1.7,2.3c-0.7,0.6-1.7,0.9-3,1.2
			c-1.2,0.2-3,0.4-5.4,0.4h-7.7c-2.4,0-4.1-0.1-5.2-0.4c-1.1-0.3-2.1-0.7-2.9-1.3c-0.9-0.7-1.6-1.6-2-2.7c-0.4-1.1-0.6-2.4-0.6-4
			v-6.1c0-3.3,0.8-5.5,2.3-6.8c1.5-1.3,4.3-1.9,8.4-1.9h7.7c2.5,0,4.3,0.1,5.5,0.3c1.2,0.2,2.1,0.6,2.8,1.1c0.7,0.5,1.2,1.3,1.6,2.2
			c0.3,0.9,0.5,2.1,0.5,3.5c0,0.3,0,0.6,0,0.8c0,0.2,0,0.3,0,0.5H218.7z"/>
		<path fill="#595A5C" d="M265.4,29.7h-6.7V7.1h10.2l8.1,14.1l8.2-14.1h10.1v22.6h-6.7V13.6l-9.3,16.1h-4.5l-9.3-16.1V29.7z"/>
	</g>
	<g>
		<path fill="#595A5C" d="M297.9,26.6c0.8,0,1.5,0.7,1.5,1.5c0,0.9-0.7,1.6-1.5,1.6c-0.8,0-1.5-0.7-1.5-1.6
			C296.3,27.3,297,26.6,297.9,26.6L297.9,26.6z M297.9,26.9c-0.7,0-1.2,0.6-1.2,1.3c0,0.7,0.6,1.3,1.2,1.3c0.7,0,1.2-0.6,1.2-1.3
			C299.1,27.5,298.6,26.9,297.9,26.9L297.9,26.9z M297.6,29.1h-0.3v-1.7c0.1,0,0.3,0,0.5,0c0.3,0,0.4,0.1,0.5,0.1
			c0.1,0.1,0.2,0.2,0.2,0.4c0,0.2-0.2,0.4-0.3,0.4v0c0.2,0,0.3,0.2,0.3,0.4c0,0.3,0.1,0.4,0.1,0.4h-0.3c0-0.1-0.1-0.2-0.1-0.4
			c0-0.2-0.2-0.3-0.4-0.3h-0.2V29.1z M297.6,28.1h0.2c0.2,0,0.4-0.1,0.4-0.3c0-0.2-0.1-0.3-0.4-0.3c-0.1,0-0.2,0-0.2,0V28.1z"/>
	</g>
	<g>
		<path fill="#E41E26" d="M17.5,11.5c-0.7,0.3-1.9,0.3-2.6,0L2,6.4c-0.7-0.3-0.7-0.7,0-1l12.9-5.1c0.7-0.3,1.9-0.3,2.6,0l12.9,5.1
			c0.7,0.3,0.7,0.7,0,1L17.5,11.5z"/>
		<path fill="#E7E7E7" d="M15.5,32.4c0,0.8-0.6,1.2-1.3,0.9L1.3,28.2C0.6,27.9,0,27,0,26.3V8.4c0-0.8,0.6-1.2,1.3-0.9l12.9,5.1
			c0.7,0.3,1.3,1.1,1.3,1.9V32.4z"/>
		<path fill="#595A5C" d="M16.9,32.4c0,0.8,0.6,1.2,1.3,0.9l12.9-5.1c0.7-0.3,1.3-1.1,1.3-1.9V8.3c0-0.8-0.6-1.2-1.3-0.9l-12.9,5.1
			c-0.7,0.3-1.3,1.1-1.3,1.9V32.4z"/>
	</g>
</g>
</svg>
