<?xml version="1.0" encoding="utf-8"?>
<!-- Generator: Adobe Illustrator 18.1.1, SVG Export Plug-In . SVG Version: 6.00 Build 0)  -->
<svg version="1.1" id="Layer_1" xmlns="http://www.w3.org/2000/svg" xmlns:xlink="http://www.w3.org/1999/xlink" x="0px" y="0px"
	 viewBox="0 0 728.4 53.5" enable-background="new 0 0 728.4 53.5" xml:space="preserve">
<g>
	<g>
		<path fill="#F5F6F6" d="M0.2,34.9l15.5,0v0.9c0,2,0.5,3.3,1.4,4c1,0.7,2.9,1,6,1h19.7c1.9,0,3.3-0.3,4.2-1
			c0.8-0.7,1.2-1.8,1.2-3.3c0-1.5-0.5-2.7-1.4-3.3c-1-0.7-3-1.1-6.2-1.4l-24.7-0.5C9.8,31.2,5.6,30,3.4,27.8
			C1.2,25.7,0.1,21.7,0.1,16c0-2.9,0.3-5.4,0.8-7.3c0.6-1.9,1.5-3.5,2.8-4.8c1.5-1.4,3.5-2.4,5.9-3C12.1,0.3,16,0,21.5,0h24
			c5.9,0,10.2,1.1,12.8,3.2c2.6,2.2,3.9,5.7,3.9,10.5c0,0.3,0,0.7,0,1c0,0.4,0,1-0.1,1.8H46.9v-0.2c0-1.7-0.4-2.9-1.3-3.8
			c-0.9-0.8-2.2-1.3-3.9-1.3H23.7c-3,0-5,0.3-6,0.9c-1,0.6-1.5,1.7-1.5,3.1c0,1.5,0.4,2.5,1.3,3.2c0.9,0.6,2.5,1.1,4.8,1.3l25.8,0.4
			c5.9,0.2,10,1.5,12.4,4c2.4,2.5,3.6,6.7,3.6,12.8c0,3.6-0.4,6.3-1.3,8.3c-0.9,2-2.4,3.6-4.5,5c-1.4,0.9-3.3,1.5-5.6,1.9
			c-2.4,0.4-5.8,0.6-10.3,0.6H21.6c-8.6,0-14.4-1-17.3-2.9C1.5,47.9,0,44.3,0,39.1c0-0.3,0-0.8,0.1-1.5C0.1,36.8,0.1,36,0.2,34.9z"
			/>
		<path fill="#F5F6F6" d="M69.7,0.6h15.7v30.5c0,3.5,0.8,5.8,2.4,7c1.6,1.2,5,1.8,10.3,1.8h8.9c4.4,0,7.4-0.6,8.9-1.9
			c1.5-1.3,2.2-3.5,2.2-6.9V0.6h15.8V36c0,6.1-1.6,10.4-4.9,12.9c-3.3,2.5-8.9,3.8-17,3.8H94.5c-9.4,0-15.9-1.2-19.4-3.6
			c-3.6-2.4-5.3-6.8-5.3-13.1L69.7,0.6L69.7,0.6z"/>
		<path fill="#F5F6F6" d="M189.2,19.1V19c0-2.3-0.7-3.9-2.1-4.8c-1.4-0.9-4.6-1.3-9.7-1.3h-9.2c-5.4,0-8.8,0.6-10.3,1.9
			c-1.5,1.3-2.3,4-2.3,8.1v7.2c0,3.7,0.9,6.3,2.5,7.6c1.7,1.4,5.1,2.1,10.1,2.1h9.1c4.5,0,7.6-0.4,9.3-1.2c1.7-0.8,2.6-2.2,2.6-4.2
			c0-0.3,0-0.7-0.1-1.4c0-0.1,0-0.1,0-0.2h-18.5V22.4h34.9v16.9c0,4.9-1.8,8.3-5.4,10.4c-3.6,2-9.8,3.1-18.7,3.1H164
			c-5.4,0-9.3-0.3-11.9-0.9c-2.5-0.6-4.7-1.6-6.5-3c-2.1-1.6-3.6-3.6-4.5-6c-0.9-2.4-1.4-5.4-1.4-9V19.8c0-7.3,1.8-12.5,5.2-15.4
			c3.5-2.9,9.8-4.4,19-4.4h17.5c5.7,0,9.9,0.3,12.6,0.8c2.7,0.5,4.8,1.3,6.4,2.6c1.6,1.2,2.8,2.9,3.6,5c0.8,2.1,1.2,4.7,1.2,7.9
			c0,0.8,0,1.4,0,1.8c0,0.4,0,0.8-0.1,1.1L189.2,19.1L189.2,19.1z"/>
		<path fill="#F5F6F6" d="M222.3,52.1h-17.2l28.1-51.4h20.1L281,52.1h-17.3l-5-8.6h-31.4L222.3,52.1z M233.3,31.2h19.8l-10-18.2
			L233.3,31.2z"/>
		<path fill="#F5F6F6" d="M326.8,0.6c8.2,0,13.7,1.2,16.7,3.6c2.9,2.4,4.4,6.8,4.4,13.3c0,4.5-0.7,7.8-2,9.9
			c-1.3,2.2-3.5,3.6-6.6,4.3c2.7,0.7,4.8,1.8,6.1,3.4c1.4,1.6,2,3.7,2,6.4v10.5h-15.7v-7.8c0-2-0.5-3.4-1.4-4.2
			c-0.9-0.7-2.8-1.1-5.7-1.1h-23.4v13.1h-15.8V0.6H326.8z M326.3,13.5h-25v12.6h25c2.1,0,3.6-0.5,4.4-1.5c0.8-1,1.2-2.8,1.2-5.3
			c0-2-0.4-3.5-1.3-4.4C329.7,13.9,328.3,13.5,326.3,13.5z"/>
	</g>
	<g>
		<path fill="#B3B3B3" d="M537.2,52.9l-25.8-38l0,38l0,0h-15.3V1.5H518l24.4,36.1l-0.2-36.1h15.5v51.4H537.2z"/>
		<path fill="#B3B3B3" d="M485.4,5.2c-3.5-2.9-9.9-4.4-19.1-4.4h-17.5l-0.7,0c-9.2,0-15.6,1.5-19.1,4.4c-3.5,2.9-5.3,8.1-5.3,15.5
			v13.9c0,3.7,0.5,6.7,1.4,9.1c0.9,2.4,2.4,4.4,4.5,6c1.8,1.4,4,2.4,6.5,3c2.5,0.6,6.5,0.9,11.9,0.9l0.8,0h17.5
			c5.4,0,9.3-0.3,11.9-0.9c2.5-0.6,4.7-1.6,6.5-3c2.1-1.6,3.6-3.6,4.5-6c0.9-2.4,1.4-5.4,1.4-9.1V20.7
			C490.6,13.3,488.9,8.1,485.4,5.2z M474.6,30.9c0,3.7-0.9,6.3-2.6,7.6c-1.7,1.4-5.1,2.1-10.1,2.1h-9.1l-0.4,0
			c-5,0-8.4-0.7-10.1-2.1c-1.7-1.4-2.6-3.9-2.6-7.6v-7.1c0-4.1,0.8-6.9,2.3-8.2c1.6-1.3,5-1.9,10.4-1.9l-3,0h12.6
			c5.4,0,8.8,0.7,10.4,1.9c1.5,1.3,2.3,4,2.3,8.2V30.9z"/>
		<path fill="#B3B3B3" d="M402.6,20.1v-0.5c0-2-0.7-3.5-2-4.4c-1.3-0.9-3.4-1.4-6.3-1.4h-12.6c-5.4,0-8.8,0.7-10.4,1.9
			c-1.5,1.3-2.3,4-2.3,8.2v7.1c0,3.7,0.9,6.3,2.6,7.6c1.7,1.4,5.1,2.1,10.1,2.1h9.1c5,0,8.3-0.5,9.8-1.5c1.6-1,2.3-2.9,2.3-5.6V33
			H419c0,0.1,0,0.2,0,0.4c0.1,1.5,0.1,2.6,0.1,3.4c0,3.3-0.4,6-1.3,8.2c-0.8,2.1-2.1,3.9-3.9,5.1c-1.7,1.3-3.9,2.1-6.7,2.7
			c-2.8,0.6-6.9,0.8-12.3,0.8h-17.5c-5.4,0-9.3-0.3-11.9-0.9c-2.5-0.6-4.7-1.6-6.5-3c-2.1-1.6-3.6-3.6-4.5-6
			c-0.9-2.4-1.4-5.4-1.4-9.1V20.7c0-7.4,1.8-12.6,5.3-15.5c3.5-2.9,9.9-4.4,19.1-4.4H395c5.6,0,9.8,0.3,12.5,0.8
			c2.7,0.5,4.8,1.4,6.3,2.6c1.6,1.2,2.8,2.9,3.6,5c0.8,2.1,1.1,4.8,1.1,8c0,0.8,0,1.4,0,1.8c0,0.4-0.1,0.8-0.1,1.2L402.6,20.1
			L402.6,20.1L402.6,20.1z"/>
	</g>
</g>
<g>
	<path fill="#FFFFFF" d="M615.9,51.4h-32.3c0.4-14.6,15.3-18.2,23.6-26.5c2.7-2.7,4.1-5.3,4.1-9.3c0-6.4-5.1-10-11-10
		c-8.1,0-11.2,6.5-11.1,13.7h-4.4c-0.2-10.1,5.1-17.4,15.7-17.4c8.6,0,15.2,4.7,15.2,13.8c0,8.2-6,13.3-12.3,17.5
		c-4.8,3.2-13.5,7.6-14.7,14.2h27.3V51.4z"/>
	<path fill="#FFFFFF" d="M659.1,27.1c0,11.5-2.8,25.3-17.1,25.3c-14.3,0-17.1-13.8-17.1-25.3c0-11.5,2.8-25.3,17.1-25.3
		C656.3,1.9,659.1,15.7,659.1,27.1z M629.3,27.1c0,8.6,1.5,21.6,12.7,21.6c11.2,0,12.7-13,12.7-21.6c0-8.5-1.5-21.5-12.7-21.5
		C630.7,5.6,629.3,18.6,629.3,27.1z"/>
	<path fill="#FFFFFF" d="M665.4,11.8c7.7-0.3,12.5-0.4,13.8-9.5h3.6v49.1h-4.4V14.9h-13V11.8z"/>
	<path fill="#FFFFFF" d="M699.6,37.4c0.2,6.8,5.3,11.4,12.1,11.4c7.6,0,12.3-6.2,12.3-13.4c0-7.2-5.3-12.8-12.6-12.8
		c-4.3,0-8.6,2.1-10.9,5.8h-3.8l4.8-25.5H726V7h-21.5l-3.2,16.3l0.1,0.1c2.5-2.9,6.6-4.6,10.4-4.6c10.1,0,16.5,7.1,16.5,17
		c0,9.6-7.6,16.6-17,16.6c-9.1,0-15.9-5.8-16.1-15.1H699.6z"/>
</g>
</svg>
