<?xml version="1.0" encoding="utf-8"?>
<!-- Generator: Adobe Illustrator 18.1.1, SVG Export Plug-In . SVG Version: 6.00 Build 0)  -->
<svg version="1.1" id="Layer_1" xmlns="http://www.w3.org/2000/svg" xmlns:xlink="http://www.w3.org/1999/xlink" x="0px" y="0px"
	 viewBox="0 0 365.6 75.9" enable-background="new 0 0 365.6 75.9" xml:space="preserve">
<g>
	<defs>
		<rect id="SVGID_1_" y="0" width="365.6" height="75.9"/>
	</defs>
	<clipPath id="SVGID_2_">
		<use xlink:href="#SVGID_1_"  overflow="visible"/>
	</clipPath>
	<path clip-path="url(#SVGID_2_)" fill="#FFFFFF" d="M0.1,63.8l10.1,0v0.6c0,1.3,0.3,2.2,0.9,2.6c0.6,0.5,1.9,0.7,3.9,0.7h12.8
		c1.3,0,2.2-0.2,2.7-0.6c0.5-0.4,0.8-1.1,0.8-2.1c0-1-0.3-1.7-0.9-2.2c-0.6-0.4-2-0.7-4-0.9l-16.1-0.4c-4-0.1-6.8-0.9-8.2-2.3
		c-1.4-1.4-2.1-4-2.1-7.7c0-1.9,0.2-3.5,0.5-4.7c0.4-1.2,1-2.3,1.8-3.1c1-0.9,2.2-1.6,3.8-2C7.9,41.2,10.4,41,14,41h15.6
		c3.9,0,6.6,0.7,8.4,2.1c1.7,1.4,2.5,3.7,2.5,6.9c0,0.2,0,0.4,0,0.7c0,0.2,0,0.6-0.1,1.2h-9.8v-0.1c0-1.1-0.3-1.9-0.8-2.5
		c-0.6-0.5-1.4-0.8-2.5-0.8H15.4c-2,0-3.3,0.2-3.9,0.6c-0.6,0.4-0.9,1.1-0.9,2c0,1,0.3,1.6,0.9,2.1c0.6,0.4,1.6,0.7,3.2,0.8
		l16.8,0.3c3.8,0.1,6.5,1,8.1,2.6c1.6,1.6,2.3,4.4,2.3,8.3c0,2.3-0.3,4.1-0.9,5.4c-0.6,1.3-1.6,2.4-2.9,3.3c-0.9,0.6-2.1,1-3.7,1.2
		c-1.5,0.2-3.8,0.4-6.7,0.4H14.1c-5.6,0-9.4-0.6-11.2-1.9C1,72.2,0,69.9,0,66.4c0-0.2,0-0.5,0-1C0.1,65,0.1,64.4,0.1,63.8"/>
	<path clip-path="url(#SVGID_2_)" fill="#FFFFFF" d="M45.4,41.4h10.2v19.9c0,2.3,0.5,3.8,1.5,4.5c1,0.8,3.3,1.2,6.7,1.2h5.8
		c2.9,0,4.8-0.4,5.8-1.2c1-0.8,1.5-2.3,1.5-4.5V41.4h10.3v23c0,4-1.1,6.8-3.2,8.4c-2.1,1.6-5.8,2.5-11,2.5H61.5
		c-6.1,0-10.4-0.8-12.7-2.4c-2.3-1.6-3.5-4.4-3.5-8.5L45.4,41.4z"/>
	<path clip-path="url(#SVGID_2_)" fill="#FFFFFF" d="M123.3,53.5L123.3,53.5c0-1.6-0.5-2.7-1.4-3.2c-0.9-0.6-3-0.8-6.3-0.8h-6
		c-3.5,0-5.7,0.4-6.7,1.3c-1,0.8-1.5,2.6-1.5,5.3v4.7c0,2.4,0.6,4.1,1.7,5c1.1,0.9,3.3,1.3,6.6,1.3h5.9c2.9,0,5-0.3,6.1-0.8
		c1.1-0.5,1.7-1.4,1.7-2.8c0-0.2,0-0.5-0.1-0.9v-0.1h-12v-6.8h22.7v11c0,3.2-1.2,5.4-3.5,6.7c-2.3,1.3-6.4,2-12.2,2h-11.4
		c-3.5,0-6.1-0.2-7.7-0.6c-1.7-0.4-3.1-1-4.2-1.9c-1.3-1.1-2.3-2.4-3-3.9C91.3,67.4,91,65.4,91,63v-9.2c0-4.8,1.1-8.1,3.4-10
		c2.3-1.9,6.4-2.8,12.4-2.8h11.4c3.7,0,6.4,0.2,8.2,0.5c1.8,0.3,3.1,0.9,4.1,1.7c1,0.8,1.8,1.9,2.3,3.3c0.5,1.4,0.8,3.1,0.8,5.1v1.2
		c0,0.3,0,0.5,0,0.7L123.3,53.5z"/>
	<path clip-path="url(#SVGID_2_)" fill="#FFFFFF" d="M144.8,74.9h-11.2l18.3-33.5H165l18,33.5h-11.2l-3.3-5.6h-20.4L144.8,74.9z
		 M151.9,61.3h12.9l-6.5-11.9L151.9,61.3z"/>
	<path clip-path="url(#SVGID_2_)" fill="#FFFFFF" d="M212.9,41.4c5.3,0,8.9,0.8,10.9,2.4c1.9,1.6,2.9,4.5,2.9,8.6
		c0,2.9-0.4,5.1-1.3,6.5c-0.9,1.4-2.3,2.4-4.3,2.8c1.8,0.4,3.1,1.2,4,2.2c0.9,1.1,1.3,2.4,1.3,4.1v6.8h-10.3v-5.1
		c0-1.3-0.3-2.2-0.9-2.7c-0.6-0.5-1.8-0.7-3.7-0.7h-15.2v8.5H186V41.4H212.9z M212.5,49.8h-16.3V58h16.3c1.4,0,2.3-0.3,2.9-1
		c0.6-0.6,0.8-1.8,0.8-3.5c0-1.3-0.3-2.3-0.9-2.9C214.7,50.1,213.8,49.8,212.5,49.8"/>
	<polygon clip-path="url(#SVGID_2_)" fill="#E81719" points="349.8,75.5 333,50.7 333.1,75.5 323.1,75.5 323.1,42 337.3,42 
		353.2,65.5 353.1,42 363.2,42 363.2,75.5 	"/>
	<path clip-path="url(#SVGID_2_)" fill="#E81719" d="M316.1,44.4c-2.3-1.9-6.4-2.9-12.4-2.9h-11.4l-0.5,0c-6,0-10.1,0.9-12.4,2.9
		c-2.3,1.9-3.4,5.3-3.4,10.1v9.1c0,2.4,0.3,4.3,0.9,5.9c0.6,1.6,1.6,2.9,2.9,3.9c1.2,0.9,2.6,1.5,4.2,1.9c1.7,0.4,4.2,0.6,7.7,0.6
		l0.5,0h11.4c3.5,0,6.1-0.2,7.7-0.6c1.7-0.4,3.1-1,4.2-1.9c1.4-1.1,2.3-2.4,2.9-3.9c0.6-1.6,0.9-3.5,0.9-5.9v-9.1
		C319.5,49.7,318.4,46.3,316.1,44.4 M309.1,61.2c0,2.4-0.6,4.1-1.7,5c-1.1,0.9-3.3,1.3-6.6,1.3h-5.9l-0.3,0c-3.3,0-5.5-0.4-6.6-1.3
		c-1.1-0.9-1.7-2.6-1.7-5v-4.6c0-2.7,0.5-4.5,1.5-5.3c1-0.8,3.3-1.3,6.8-1.3l-2,0h8.2c3.5,0,5.8,0.4,6.8,1.3c1,0.9,1.5,2.6,1.5,5.3
		V61.2z"/>
	<path clip-path="url(#SVGID_2_)" fill="#E81719" d="M262.2,54.1v-0.3c0-1.3-0.4-2.3-1.3-2.9c-0.9-0.6-2.2-0.9-4.1-0.9h-8.2
		c-3.5,0-5.8,0.4-6.8,1.3c-1,0.9-1.5,2.6-1.5,5.3v4.6c0,2.4,0.6,4.1,1.7,5c1.1,0.9,3.3,1.3,6.6,1.3h5.9c3.2,0,5.4-0.3,6.4-1
		c1-0.7,1.5-1.9,1.5-3.6v-0.4h10.4c0,0,0,0.1,0,0.2c0.1,1,0.1,1.7,0.1,2.2c0,2.2-0.3,3.9-0.8,5.3c-0.5,1.4-1.4,2.5-2.5,3.3
		c-1.1,0.8-2.6,1.4-4.4,1.7c-1.8,0.4-4.5,0.5-8,0.5h-11.4c-3.5,0-6.1-0.2-7.7-0.6c-1.7-0.4-3.1-1-4.2-1.9c-1.4-1.1-2.3-2.4-2.9-3.9
		c-0.6-1.6-0.9-3.5-0.9-5.9v-9.1c0-4.8,1.2-8.2,3.4-10.1c2.3-1.9,6.4-2.9,12.4-2.9h11.4c3.7,0,6.4,0.2,8.1,0.5
		c1.7,0.3,3.1,0.9,4.1,1.7c1.1,0.8,1.8,1.9,2.4,3.3c0.5,1.4,0.7,3.1,0.7,5.2v1.1c0,0.3,0,0.5-0.1,0.8L262.2,54.1L262.2,54.1z"/>
	<path clip-path="url(#SVGID_2_)" fill="#FFFFFF" d="M270.5,32.6c0-1.6,0.3-3,0.8-4.3c0.5-1.2,1.2-2.3,2.1-3.3
		c0.9-1,1.8-1.9,2.9-2.7c1.1-0.8,2.2-1.6,3.3-2.4c1.1-0.8,2.3-1.5,3.4-2.3s2.1-1.6,3-2.5c0.9-0.9,1.6-1.8,2-2.8
		c0.4-0.9,0.7-2.1,0.7-3.4c0-1-0.2-2-0.6-2.8c-0.4-0.8-0.9-1.5-1.6-2.1c-0.7-0.6-1.4-1-2.3-1.3c-0.9-0.3-1.8-0.4-2.8-0.4
		c-1.3,0-2.5,0.2-3.4,0.7c-0.9,0.5-1.7,1.2-2.3,2c-0.6,0.8-1,1.8-1.3,2.9c-0.3,1.1-0.4,2.2-0.3,3.4h-2.9c0-1.7,0.2-3.2,0.6-4.6
		c0.4-1.4,1.1-2.6,1.9-3.6c0.9-1,1.9-1.8,3.3-2.4c1.3-0.6,2.8-0.9,4.6-0.9c1.4,0,2.7,0.2,4,0.6c1.2,0.4,2.3,1,3.2,1.7
		c0.9,0.8,1.6,1.7,2.1,2.8c0.5,1.1,0.8,2.5,0.8,4c0,1.4-0.2,2.6-0.7,3.7c-0.4,1.1-1,2.1-1.8,3.1c-0.8,0.9-1.6,1.8-2.6,2.6
		s-2,1.5-3.1,2.2c-0.8,0.5-1.7,1.1-2.7,1.7c-1,0.6-2.1,1.3-3,2.1c-1,0.8-1.8,1.6-2.6,2.5c-0.7,0.9-1.2,1.9-1.4,3h18v2.7H270.5z"/>
	<path clip-path="url(#SVGID_2_)" fill="#FFFFFF" d="M314.4,1.5c1.5,1,2.6,2.4,3.4,4c0.8,1.6,1.4,3.4,1.7,5.4s0.4,3.9,0.4,5.8
		c0,1.9-0.1,3.9-0.4,5.8c-0.3,2-0.8,3.8-1.7,5.4c-0.8,1.6-2,2.9-3.4,3.9c-1.5,1-3.4,1.5-5.8,1.5c-2.3,0-4.3-0.5-5.7-1.5
		c-1.5-1-2.6-2.3-3.4-3.9c-0.8-1.6-1.4-3.4-1.7-5.4c-0.3-2-0.4-3.9-0.4-5.8c0-1.9,0.1-3.9,0.4-5.8c0.3-2,0.8-3.8,1.7-5.4
		c0.8-1.6,2-2.9,3.4-4c1.5-1,3.4-1.5,5.7-1.5C311.1,0,313,0.5,314.4,1.5 M304.3,3.9c-1.1,1-2,2.1-2.5,3.6s-0.9,3-1.1,4.6
		c-0.2,1.7-0.3,3.2-0.3,4.6c0,1.4,0.1,3,0.3,4.6c0.2,1.6,0.6,3.2,1.1,4.6c0.6,1.4,1.4,2.6,2.5,3.6c1.1,1,2.6,1.4,4.4,1.4
		c1.8,0,3.3-0.5,4.4-1.4c1.1-1,1.9-2.2,2.5-3.6c0.6-1.4,0.9-3,1.1-4.6c0.2-1.6,0.3-3.2,0.3-4.6c0-1.4-0.1-2.9-0.3-4.6
		c-0.2-1.7-0.6-3.2-1.1-4.6c-0.6-1.4-1.4-2.6-2.5-3.6c-1.1-1-2.6-1.4-4.4-1.4C306.8,2.5,305.4,2.9,304.3,3.9"/>
	<path clip-path="url(#SVGID_2_)" fill="#FFFFFF" d="M327.6,6.3c1-0.1,1.9-0.4,2.7-0.8c0.8-0.4,1.4-1,1.9-1.8c0.5-0.8,0.9-2,1.1-3.4
		h2.4v32.4h-2.9v-24h-8.6V6.5C325.4,6.5,326.5,6.4,327.6,6.3"/>
	<path clip-path="url(#SVGID_2_)" fill="#FFFFFF" d="M359.8,4.1c-1.2-1.1-2.7-1.7-4.6-1.7c-1.9,0-3.4,0.5-4.6,1.4
		c-1.2,1-2.1,2.2-2.7,3.6c-0.6,1.5-1.1,3-1.3,4.7c-0.2,1.7-0.3,3.3-0.3,4.7h0.1c0.8-1.6,1.9-2.9,3.5-3.9c1.6-1,3.3-1.5,5.1-1.5
		c1.6,0,3.1,0.3,4.4,0.8c1.3,0.5,2.4,1.3,3.4,2.2c0.9,1,1.6,2.1,2.1,3.4c0.5,1.3,0.8,2.8,0.8,4.3s-0.3,3-0.8,4.4
		c-0.5,1.3-1.3,2.5-2.3,3.5c-1,1-2.1,1.7-3.5,2.3c-1.3,0.5-2.8,0.8-4.4,0.8c-2,0-3.7-0.3-5.1-0.9c-1.4-0.6-2.6-1.6-3.5-2.9
		c-0.9-1.4-1.6-3.1-2.1-5.3c-0.4-2.2-0.7-4.8-0.7-8c0-0.6,0-1.5,0.1-2.5c0.1-1,0.3-2.2,0.5-3.4c0.3-1.2,0.7-2.4,1.2-3.6
		c0.5-1.2,1.2-2.3,2-3.3c0.8-1,1.9-1.8,3.2-2.4c1.3-0.6,2.8-0.9,4.5-0.9c2.9,0,5.2,0.7,6.9,2.1c1.7,1.4,2.7,3.5,3.1,6.4h-2.9
		C361.7,6.7,360.9,5.2,359.8,4.1 M351.5,14.7c-1,0.4-1.9,1.1-2.5,1.8c-0.7,0.8-1.2,1.7-1.6,2.7c-0.4,1-0.5,2.2-0.5,3.4
		c0,1.1,0.2,2.2,0.5,3.2c0.3,1,0.8,1.9,1.5,2.7c0.7,0.8,1.5,1.3,2.5,1.8c1,0.4,2.2,0.6,3.7,0.6c1.2,0,2.2-0.2,3.2-0.7
		c0.9-0.4,1.8-1,2.5-1.8c0.7-0.8,1.2-1.6,1.6-2.7c0.4-1,0.6-2.1,0.6-3.2c0-1.2-0.2-2.3-0.5-3.3c-0.4-1-0.9-2-1.5-2.7
		c-0.7-0.8-1.5-1.4-2.5-1.8c-1-0.4-2.1-0.7-3.3-0.7C353.6,14,352.5,14.2,351.5,14.7"/>
</g>
</svg>
